<?xml version="1.0" encoding="utf-8"?>
<!-- Generator: Adobe Illustrator 30.3.0, SVG Export Plug-In . SVG Version: 9.03 Build 0)  -->
<svg version="1.0" id="Layer_1" xmlns="http://www.w3.org/2000/svg" xmlns:xlink="http://www.w3.org/1999/xlink" x="0px" y="0px"
	 viewBox="0 0 4439.2 943.7" style="enable-background:new 0 0 4439.2 943.7;" xml:space="preserve">
<style type="text/css">
	.st0{fill:#001660;}
</style>
<g>
	<path class="st0" d="M35.8,31.3H946v874.2H35.8V31.3z M923,54.4l-864.4,0l0,828l864.4,0L923,54.4z"/>
	<path class="st0" d="M1653.1,515.7c-26,20.6-57.9,30.4-91,30.5l-194.6,0.3l-0.6-13.4c-0.3-5.9,37.7-0.2,37.7-31.2l0.1-222.8
		c0-16.5-11.2-26.6-26.9-26.8c-2.4,0-10.3,0-10.4-2.3l-0.1-15.7l174.7,0.2c27.6,0,54.1,5.7,77.6,17.6c35.6,18,49.1,60.7,26.1,93.4
		c-13.9,19.7-36.9,27.1-59,33.9c30.9,5.9,60.3,14.4,79.6,38.6C1689.8,447.3,1683.7,491.3,1653.1,515.7z M1539.2,366.6
		c24.6-6.7,36.2-25.7,37-49.3c0.8-24.2-11.6-45.1-36.5-50.9c-17.7-4.1-36.5-3.9-56.3-2.7l0,104.8
		C1501.9,371.4,1520.8,371.6,1539.2,366.6z M1558.3,516.8c26.9-8,38.9-29.9,38.8-55.6c-0.1-28.2-15.6-51.5-44.4-59
		c-21.9-5.7-45-4.9-69.4-4.4l0.2,99c0,8,4.4,16,10.4,20.4C1515.4,521.5,1536.9,523.2,1558.3,516.8z"/>
	<path class="st0" d="M2795.9,434.2l-21-0.8l0.3,73.5c0.1,27,32.7,20.4,32.5,25l-0.6,14.5l-138.3-0.1l0.3-14.3
		c0.1-4.5,32.4,1.4,32.4-25.5l0.1-186.5c0-14.3-7.7-24-22-24.9c-2.6-0.2-10.6-0.4-10.6-3l-0.1-14.4l159.2,0.2
		c40.4,0,87.5,16.5,95.9,55.3c9.5,44-13.4,72.6-60.8,86.5l64.6,84.1c11.9,15.5,25.8,26.2,46.4,26.9l0.2,15.6l-87.2,0.6
		c-10.1,0.1-21.3-5.1-26.6-13.3L2795.9,434.2z M2849.8,348.9c-2.6-25.1-18.4-43.8-43.4-44.2l-30.4-0.4l0.2,102.1
		c17.5,3.9,37.1,2.8,52.9-5.9C2847.3,390.2,2852,370,2849.8,348.9z"/>
	<path class="st0" d="M2218.4,385.6l112.8,126.8c9.8,11,19.6,16.8,35.3,18.5l-0.3,15.6l-106.5,0c-31.4-44.7-63.8-85.4-102.8-127.4
		l-0.3,94.4c-0.1,17.8,32.8,14.9,32.9,18.5l0.2,14.3l-142.1,0.2l0.7-14.3c0.2-4.8,32.4,1.3,32.4-25.6l0.1-184.2
		c0-7.6-2.9-18.7-7.8-21.9c-7-4.6-13.4-5.4-24.9-6.8c-0.5-2.4,0.1-12.6,1.2-16.1l139.9,0.2l1,12.9c0.2,3-7.3,4.7-11.1,5.1
		c-13.6-0.2-22.9,9.4-22.9,22.7l0.1,82.7l55.9-50.3l40.7-40.8c1.5-1.5,2.7-7.7,1.7-9c-1.3-1.7-5.2-4.3-7.5-4.7l-15.9-2.5l0.3-16
		l116.3-0.1l1.6,16.4c-21.5,2.5-37.7,8.9-53.4,22.7L2218.4,385.6z"/>
	<path class="st0" d="M3866.1,546.1l-51.8,0.3l-153.7-192l0.2,149.9c0,13.8,8.8,23.6,22.3,24.4c2.5,0.3,10.7,0.6,10.9,3.3l0.6,14.4
		l-100.9,0.1l1.1-14.4c0.3-3.8,32.3,0.4,32.3-28.3l0.4-178.8c0-19.4-13.9-31.2-34-30.7c-1.3-4.2-1.2-12.8,0.2-16.7l98.2,0.2
		l139.6,172.3l0.5-130.4c0-8.1-6-17.6-11-21.9l-24.1-4.4l0.2-15.6l99.8-0.3c1.9,3.4,1.9,12.8-0.1,16.8c-16.9-0.5-30.6,8.1-30.6,25.8
		L3866.1,546.1z"/>
	<path class="st0" d="M3562.6,477.8c-32.8,69.7-117.7,86.9-188.7,67.9c-61.8-16.6-101.6-69-100.5-132.5
		c1-61.4,37.7-113.8,96.8-133.2c75.5-24.7,168.7-0.9,197.3,76.3C3582.1,395.9,3580.5,439.6,3562.6,477.8z M3469,516.5
		c38.8-29.3,39.9-111.7,25.4-162.3c-12.6-44.1-49.5-68.7-91.6-56.2c-16.9,5-34.4,20.6-41.8,41.7c-21,60.6-16.4,163.8,43.2,184.7
		C3426.8,532.5,3450.3,530.7,3469,516.5z"/>
	<path class="st0" d="M2536.2,422.2l-42.3-0.4l0.2,81.9c0,7.9,6,16.2,13.9,16.5c21.1,0.9,42,1.9,62.3-2.9
		c29.7-7.1,41.4-42.9,47.7-47.5c2.5-1.9,10-1.1,15.9-0.3l-14.9,76.7l-230.5,0.2l-0.6-13c-0.3-6.3,32.4,0.9,32.4-27.6l0-185.7
		c0-6.4-3.5-16.3-7.3-19.6c-4.9-4.2-15-5.5-23.7-6.4c-2.8-2-3.2-12.1-1.2-16.3l228-0.5l3.9,70.4c-7,1.4-15.6,1.1-20.9-1.7
		c-4.6-21.9-19.3-40.7-42.7-41l-62.4-0.9l0,91.8l42.3-0.7c17.5-0.3,29.2-13.2,29.4-31c5.4-1.2,12.8-1.2,17.6,0.3l0.1,88.1
		c-5.8,1.5-14.7,1.6-19.1-0.2C2563.6,434.9,2553.6,422.3,2536.2,422.2z"/>
	<path class="st0" d="M1790.3,467.3l-17.1,38.5c-1.5,3.3-1.4,13.4,1.7,15.8c6.5,5.2,16.7,7.6,27.6,8.8l-0.2,16l-103.4-0.1
		c-2.6-3.8-1.5-14.5,2.5-16.5c18.4-0.1,30.2-10.1,37.4-26.4l82.8-188.2c4.5-10.3-12.3-23.8-20.7-20.3l-0.6-16.4l87.5-1.5l46.9,109.6
		l54,122.5c6.3,14.4,17.5,20.9,34.4,21.5l0.6,15.8l-142.8,0l-0.4-13c-0.2-5.5,16.5-2.8,24-9.6c2.4-2.1,2.1-11.2,0.7-14.5l-17.4-42.2
		L1790.3,467.3z M1876.6,438.7l-38.2-89.3l-37.6,89.8L1876.6,438.7z"/>
	<path class="st0" d="M4073.1,422.3l-42.9-0.5l0.1,82.7c0,6.6,5.8,14.5,13,15c52.1,3.6,81.8,3,105.3-49.5l18.8-1.2l-15.4,77.5
		l-224.1,0.1l-0.7-13c-0.3-6.3,31.7-0.1,31.7-26l0-190.9c0-25-29.6-19.1-31.8-26.1c-1-3,0.8-11.2,3.2-12.8l218.1-0.1l2.5,70
		c-6.1,1.5-15.1,1.3-19.8-1.3c-4.5-25.9-22.1-42.3-47.6-42.2l-53.3,0.1l-0.1,91.6l40.2-0.6c16.9-0.3,28.3-12.4,28.2-31.2l17.7-0.8
		l0,90.2c-6.3,1.5-15.8,0.9-19-2.8C4097.3,435.7,4089.8,422.5,4073.1,422.3z"/>
	<path class="st0" d="M4340.9,546.2c-48.3,13.8-98.6,5.4-142.8-14.1l-3.1-78.4l18.6,0.9c11.3,51.1,57.1,87.3,103.7,71.1
		c13.6-4.7,21.2-18.3,22.1-30.3c1.1-14.8-5.3-29.4-19.3-36l-46.2-21.8c-17.4-8.2-35.8-15.1-50.2-27.7c-19-16.8-25.8-39.8-23.2-65
		c2.2-21.1,14.1-42.3,34.5-55.6c43.3-28.2,105.5-20.7,153.7,0.8l0.1,67.5l-18.6-1.2c-6.2-42.1-44-69.8-84-59.2
		c-14.3,3.8-24.4,14.9-26.4,26.8c-2.5,14.7,3.5,28.5,17.1,35.1l35.5,17.3l52.4,25.7c19.8,9.7,33.1,29.8,36.4,51.5
		C4408.1,496.4,4383.9,533.9,4340.9,546.2z"/>
	<path class="st0" d="M3070.3,623.4c-1.5-4.6-1.4-14,0.3-18.7c17.4-3.7,33.5-6,47.2-16.8c17.1-13.4,26.6-36,26.7-59.2l0.7-246.6
		c0-8.8-3-19.1-8.5-23.7c-5.8-4.8-16-6.4-25.5-7.5c-3.2-2.2-4.1-11.9-1.9-16.8l148.2,0l-0.7,16.1c-12.3,1.6-18.7,2.7-26.3,7.9
		c-6.2,4.2-9,15.9-9.1,24.9l-0.1,220.9c0,49-30.9,90-76.1,106.7C3121.3,619.7,3097.7,623.3,3070.3,623.4z"/>
	<rect x="1143.6" y="31.2" class="st0" width="23.4" height="874.3"/>
	<polygon class="st0" points="3257.6,849 3219.9,849 3158,772.8 3156.9,849.2 3115,849 3115,705 3154.9,704.4 3215.1,780.1 
		3215.5,705.1 3257.5,704.7 	"/>
	<path class="st0" d="M2849.2,815.6c-15.3,20.1-37.5,32.4-62.3,32.7l-70.3,0.9l0-144.6l69.8,1c25.2,0.4,47.7,12.2,62.1,31.7
		C2863.1,761.1,2863.5,790.2,2849.2,815.6z M2799.2,807.9c20.9-11.7,22.2-44.2,4.4-58c-12.8-9.9-29.4-9.3-44.9-8.5l0.1,71
		C2771.9,813.4,2786.6,815,2799.2,807.9z"/>
	<path class="st0" d="M2374.8,830.8c-32,27.8-79.2,27.5-111.2,2c-18.5-14.8-27-36.7-26.2-58.9c0.8-22.3,12.7-43.6,32.5-57
		c22.9-15.6,52.4-18.6,78.6-9.7c24.7,8.4,43,28.9,47.9,50.3C2402.8,785.2,2396.1,812.3,2374.8,830.8z M2356.1,777.2
		c0-20.9-17-37.9-37.9-37.9c-20.9,0-37.9,17-37.9,37.9s17,37.9,37.9,37.9C2339.2,815.1,2356.1,798.1,2356.1,777.2z"/>
	<polygon class="st0" points="2135.4,848.7 2092.3,849.2 2092,794 2039.6,794.1 2039.5,849.1 1997.1,848.8 1997.1,704.7 
		2039.2,704.6 2039.7,758.3 2092,758.4 2092,704.9 2135.3,704.6 	"/>
	<path class="st0" d="M3466.2,794.1l-28.4-0.2l0.1-30l68.4-0.1l0,67.1c-27.7,19.6-63,26.3-96,16c-32.3-10.1-51.6-39.3-51.2-71.4
		c0.5-32,21.2-59.9,53.6-69.1c30.9-8.8,64.1-3.9,89.7,16.9l-25.7,29.3c-14.5-11.3-29.6-17-45.7-12.9c-22.4,5.8-32.3,27-27.6,47.3
		c5.1,21.9,25.6,34.2,49.1,29.6c3.8-0.8,11.2-1.7,12.3-4.8C3465.9,808.7,3466,801.6,3466.2,794.1z"/>
	<path class="st0" d="M3709.8,843.5c-36.2,15.1-77,9.3-108.8-14.8l24.3-29.2c22.5,22.4,65.3,23.4,65.5,8.6c0.1-3-4.7-8.3-7.6-9.1
		l-40.8-10.3c-9.2-2.3-20.5-8.7-26.2-16c-9.5-12.2-9.6-26.6-4-41.7c12.8-34.8,81.4-37.6,118.5-9.3l-21.6,29.7
		c-22.6-16.9-56.7-18-57.2-6.6c-0.1,2.4,3.9,8.2,6.6,9l40.4,10.9c18.9,5.1,31.9,17,33.9,34.1C3734.6,816,3728.7,835.6,3709.8,843.5z
		"/>
	<polygon class="st0" points="2616.6,813 2616.7,849 2501.8,849.2 2501.7,705 2544.1,704.5 2544.3,812.9 	"/>
	
		<rect x="2963" y="704.5" transform="matrix(1 -1.005132e-03 1.005132e-03 1 -0.7795 3.0002)" class="st0" width="42.9" height="145"/>
	<path class="st0" d="M571.5,453.8c-4.1,70-80.5,103.3-150.2,103.3l-186.5,0.2l0.1-17.9c21.2,2.1,38.3-11.1,38.3-33.1l0.1-297.2
		c0-8.9-4.9-20.8-9.6-25.4c-6-6.1-16.4-7.7-26.8-8.5c-2.5-3.5-2.7-12.4-0.9-18.4l167.7,0.4c33.6,0.1,65.2,6.8,93.4,23.9
		c39.7,24.1,55.3,73.2,34.1,114.8c-13.2,25.8-38,39.9-65.3,48.6C527.3,354.1,574.9,395.1,571.5,453.8z M462.4,258
		c-2.1-36.3-24.4-64.1-59.8-68c-18-1.9-36.2-1.5-54.9,0.1l0.1,143.8c18.7,0.5,35.9,1.6,52.6,0C440,330.4,464.7,298.1,462.4,258z
		 M422.1,528.1c31-3.9,56.1-26.4,65-51.7c10.5-30.2,3.2-62.5-18.8-84.9c-29.9-30.5-76.7-26.8-120.7-25.8l0.4,138
		c0,14.4,10.9,24.1,23.8,24.9C388.3,529.5,404.5,530.3,422.1,528.1z"/>
	<path class="st0" d="M479.4,623.1c-3.5,53.5,19.1,106.4,72.2,116.8c31.9,6.3,63.1-7.7,79.7-36.3c10.7-18.4,17.9-40.6,17.9-63.4
		l0.2-257.1c0-8.2-3.4-20.1-8.9-24.5c-9.6-7.6-20-8.2-32.3-8.9l0.6-16.9l151.8-0.2c1.2,4.3,1.1,12.9,0.1,17.9
		c-23.9-1.6-40.1,11.9-40.2,34.6l-1,247.5c-0.2,59.7-39,107-94.5,126.1c-51.8,17.8-109.8,12.2-156.8-16
		c-43-25.8-62.9-71.9-58.1-119.6L479.4,623.1z"/>
</g>
</svg>
